<?xml version="1.0" encoding="iso-8859-1"?>
<!-- Generator: Adobe Illustrator 19.0.0, SVG Export Plug-In . SVG Version: 6.00 Build 0)  -->
<svg version="1.1" id="Capa_1" xmlns="http://www.w3.org/2000/svg" xmlns:xlink="http://www.w3.org/1999/xlink" x="0px" y="0px"
	 viewBox="0 0 384.97 384.97" style="enable-background:new 0 0 384.97 384.97;" xml:space="preserve">
<g>
	<g id="Chevron_Right_Circle">
		<path d="M192.485,0C86.173,0,0,86.173,0,192.485c0,106.3,86.173,192.485,192.485,192.485c106.3,0,192.485-86.185,192.485-192.485
			C384.97,86.173,298.785,0,192.485,0z M192.485,360.909c-92.874,0-168.424-75.55-168.424-168.424S99.611,23.688,192.485,23.688
			s168.424,75.923,168.424,168.797S285.359,360.909,192.485,360.909z"/>
		<path d="M166.114,99.503c-4.704-4.74-12.319-4.74-17.011,0c-4.704,4.752-4.704,12.439,0,17.191l74.528,75.61l-74.54,75.61
			c-4.704,4.74-4.704,12.439,0,17.191c4.704,4.74,12.319,4.74,17.011,0l83.009-84.2c4.572-4.632,4.584-12.56,0-17.191
			L166.114,99.503z"/>
	</g>
	<g>
	</g>
	<g>
	</g>
	<g>
	</g>
	<g>
	</g>
	<g>
	</g>
	<g>
	</g>
</g>
<g>
</g>
<g>
</g>
<g>
</g>
<g>
</g>
<g>
</g>
<g>
</g>
<g>
</g>
<g>
</g>
<g>
</g>
<g>
</g>
<g>
</g>
<g>
</g>
<g>
</g>
<g>
</g>
<g>
</g>
</svg>
